<svg version="1.0" 
  xmlns="http://www.w3.org/2000/svg" width="1280.000000pt" height="1280.000000pt" viewBox="0 0 1280.000000 1280.000000" preserveAspectRatio="xMidYMid meet">
  <g transform="translate(0.000000,1280.000000) scale(0.100000,-0.100000)" fill="#ffffff" stroke="none">
    <path d="M6370 11880 l0 -490 -51 -40 c-378 -299 -931 -576 -1444 -724 -391
-113 -758 -166 -1165 -169 l-215 -2 -283 390 c-156 215 -288 391 -293 393 -4
2 -17 -3 -29 -11 -19 -13 -7 -31 265 -406 157 -216 285 -400 285 -410 0 -10
-21 -80 -46 -157 -177 -537 -467 -1053 -838 -1489 -220 -258 -568 -574 -824
-749 l-68 -47 -463 151 c-255 83 -465 149 -467 148 -1 -2 -5 -14 -9 -29 l-6
-25 463 -150 463 -150 28 -80 c96 -267 172 -609 214 -954 25 -206 25 -754 0
-960 -40 -332 -102 -615 -190 -879 l-52 -155 -460 -148 c-252 -82 -461 -150
-463 -152 -8 -8 12 -57 22 -53 6 2 216 70 467 152 l455 147 90 -63 c391 -278
776 -666 1059 -1069 184 -263 368 -605 488 -910 75 -190 141 -394 134 -413 -3
-7 -132 -188 -287 -401 -264 -362 -281 -388 -264 -401 11 -8 24 -13 29 -12 6
2 138 180 295 396 l285 394 230 -7 c465 -12 871 -80 1278 -212 434 -141 885
-372 1247 -637 l120 -88 0 -490 0 -489 30 0 30 0 0 490 0 489 78 60 c504 383
1158 672 1800 796 286 55 753 94 929 79 l73 -7 285 -393 286 -394 25 16 c15
11 21 21 16 28 -113 146 -562 780 -562 794 0 30 112 353 172 494 143 341 366
718 596 1008 276 347 629 680 963 907 l45 31 463 -150 c479 -156 481 -157 481
-108 0 11 -118 53 -433 154 -237 77 -446 145 -464 152 -30 12 -34 21 -82 167
-218 673 -268 1403 -145 2117 32 186 91 427 149 607 l47 142 356 116 c603 196
572 185 572 203 -1 45 -9 43 -475 -109 -534 -174 -452 -170 -638 -30 -364 273
-723 642 -982 1011 -186 266 -368 604 -488 910 -75 190 -141 394 -134 413 3 7
132 188 287 401 264 362 281 388 264 401 -11 8 -23 13 -29 12 -5 -2 -138 -180
-295 -396 l-285 -394 -230 7 c-668 17 -1238 151 -1825 428 -231 109 -545 300
-742 450 l-78 59 0 489 0 490 -30 0 -30 0 0 -490z m-32 -1613 c-115 -99 -462
-306 -663 -395 -437 -195 -847 -289 -1305 -299 l-235 -4 -297 410 -297 411 87
0 c368 1 797 56 1158 150 532 139 1102 411 1513 721 l66 51 3 -509 3 -508 -33
-28z m232 946 c345 -246 749 -450 1165 -588 435 -145 832 -215 1327 -233 l196
-7 -294 -405 c-293 -404 -294 -405 -337 -413 -59 -11 -405 9 -572 34 -549 79
-1072 291 -1525 618 l-95 68 -3 512 c-2 410 0 511 10 505 7 -5 65 -45 128 -91z
m-2873 -1138 c103 -143 235 -324 291 -403 l104 -142 -43 -128 c-222 -671 -650
-1260 -1225 -1689 l-114 -84 -482 157 c-266 86 -484 157 -486 159 -1 1 45 37
103 79 730 536 1291 1298 1585 2153 28 81 53 154 56 162 6 19 -4 32 211 -264z
m5656 157 c274 -856 860 -1664 1600 -2206 70 -52 104 -82 95 -86 -7 -4 -225
-75 -485 -159 l-472 -153 -114 85 c-360 268 -667 602 -892 972 -134 220 -281
543 -348 763 l-26 83 297 410 c163 225 299 409 302 409 3 0 22 -53 43 -118z
m-2983 -530 l0 -509 -77 -55 c-411 -293 -914 -458 -1395 -458 l-116 0 -292
402 c-161 222 -295 409 -297 415 -4 10 28 13 138 13 659 1 1410 248 1946 641
43 31 81 58 86 58 4 1 7 -228 7 -507z m167 439 c565 -397 1279 -631 1930 -631
128 0 144 -2 139 -16 -3 -8 -137 -195 -297 -415 l-290 -399 -117 0 c-480 0
-973 162 -1394 459 l-78 55 0 508 c0 279 2 508 4 508 3 0 49 -31 103 -69z
m-2098 -1088 c160 -222 291 -409 291 -417 0 -8 -16 -60 -36 -116 -160 -460
-455 -864 -850 -1161 l-91 -69 -479 156 c-263 86 -481 158 -484 161 -3 3 6 13
20 22 187 124 567 487 724 691 171 221 300 430 412 665 58 122 146 345 175
443 7 23 16 39 19 35 4 -4 139 -189 299 -410z m4262 317 c138 -414 355 -800
640 -1140 168 -200 440 -452 662 -612 15 -11 -51 -35 -469 -171 l-486 -158
-81 61 c-309 230 -556 524 -729 866 -73 144 -158 358 -161 407 -2 27 40 90
293 439 162 223 296 405 297 404 1 -1 16 -44 34 -96z m-2331 -763 l0 -513 -87
-57 c-221 -147 -475 -230 -748 -243 l-110 -5 -298 413 -298 413 68 2 c516 17
997 171 1383 441 47 33 86 60 88 61 1 1 2 -230 2 -512z m384 309 c345 -184
773 -296 1134 -296 46 0 82 -4 80 -8 -1 -5 -136 -192 -298 -416 l-295 -407
-110 5 c-274 13 -528 97 -757 249 l-78 52 0 512 0 511 112 -74 c61 -41 157
-99 212 -128z m-1432 -1082 l58 -82 -26 -73 c-29 -81 -100 -228 -142 -293 -86
-135 -241 -303 -362 -394 l-55 -41 -480 156 c-264 86 -482 157 -484 160 -3 2
5 11 18 19 63 45 186 149 273 232 291 279 505 623 653 1050 4 11 221 -280 547
-734z m2813 456 c79 -175 178 -340 304 -505 119 -156 365 -395 512 -499 13 -8
21 -17 18 -20 -2 -2 -220 -74 -484 -159 l-480 -156 -72 55 c-208 159 -393 415
-481 664 l-30 86 246 340 c136 187 271 373 301 414 l54 73 37 -104 c20 -57 54
-142 75 -189z m-1765 -780 l0 -510 -39 -25 c-54 -33 -145 -63 -209 -67 l-52
-3 -298 410 -298 410 121 12 c267 27 498 105 700 237 39 25 71 46 73 46 1 0 2
-229 2 -510z m194 428 c176 -105 407 -177 637 -200 l125 -13 -298 -410 -298
-410 -48 3 c-63 4 -136 26 -197 60 l-50 27 -3 514 -2 513 27 -18 c16 -10 64
-40 107 -66z m-4309 -223 c231 -75 425 -142 431 -148 7 -7 25 -55 42 -107 113
-349 163 -674 163 -1060 0 -387 -50 -715 -161 -1052 l-40 -123 -482 -156
c-266 -86 -484 -156 -485 -155 -1 1 14 51 33 111 269 826 284 1758 44 2604
-22 75 -48 163 -59 195 -12 33 -21 60 -21 62 0 1 26 -6 58 -16 31 -11 246 -80
477 -155z m8787 43 c-216 -664 -267 -1410 -146 -2128 29 -175 89 -421 143
-590 22 -68 39 -125 37 -127 -1 -1 -219 68 -484 154 l-482 157 -34 105 c-111
340 -155 604 -163 983 -8 352 16 586 87 887 33 134 93 336 110 361 8 13 959
331 968 324 2 -1 -14 -58 -36 -126z m-5306 -495 c156 -215 284 -396 284 -403
0 -30 -70 -140 -121 -192 l-56 -57 -229 74 c-126 41 -345 112 -486 157 -142
46 -257 85 -257 88 0 3 34 32 76 65 181 144 360 394 449 629 25 64 28 68 41
50 8 -10 142 -195 299 -411z m1669 362 c53 -146 161 -326 278 -463 57 -67 197
-197 240 -224 6 -4 9 -9 7 -10 -3 -2 -115 -40 -250 -83 -135 -43 -352 -114
-483 -156 l-239 -77 -58 58 c-35 35 -71 84 -91 125 -29 58 -31 69 -20 88 53
84 586 806 591 800 4 -5 15 -30 25 -58z m-4155 -233 l485 -158 32 -104 c76
-239 107 -454 107 -730 0 -276 -31 -491 -107 -730 l-33 -105 -484 -157 c-267
-87 -486 -158 -487 -158 -1 0 9 31 22 69 68 202 133 520 155 769 16 170 7 615
-14 767 -30 211 -77 419 -135 603 -16 50 -28 92 -27 92 0 0 219 -72 486 -158z
m6764 77 c-66 -194 -132 -519 -154 -759 -23 -260 -8 -634 36 -900 19 -120 86
-392 118 -487 14 -40 23 -73 20 -73 -14 0 -959 311 -965 317 -16 17 -80 251
-103 377 -51 275 -56 534 -16 816 18 123 68 336 103 434 l14 40 484 157 c266
86 485 156 486 155 2 -2 -9 -36 -23 -77z m-5699 -424 c248 -80 455 -153 462
-161 6 -8 21 -50 32 -93 70 -258 66 -561 -10 -817 l-21 -70 -471 -153 c-260
-85 -478 -156 -486 -159 -10 -3 -12 1 -8 14 152 515 165 954 41 1429 -18 72
-36 140 -40 152 -6 21 -4 22 22 13 16 -5 232 -75 479 -155z m4651 63 c-132
-435 -135 -929 -10 -1386 19 -69 33 -127 31 -129 -2 -2 -220 67 -484 153
l-481 157 -26 91 c-13 50 -30 118 -36 151 -18 97 -24 321 -11 420 17 128 60
305 80 323 20 18 955 322 959 311 2 -4 -8 -45 -22 -91z m-2598 -499 l-3 -112
-119 164 c-65 90 -120 168 -122 174 -3 6 22 15 59 22 35 6 90 24 123 39 l59
29 3 -102 c1 -56 1 -152 0 -214z m242 250 c36 -7 67 -14 69 -15 3 -3 -176
-256 -229 -324 -20 -25 -20 -25 -20 191 l0 215 58 -27 c31 -15 86 -33 122 -40z
m-1262 -150 l472 -153 10 -35 c13 -47 13 -196 0 -243 -9 -32 -17 -39 -58 -52
-26 -8 -242 -78 -481 -156 -239 -77 -435 -139 -437 -138 -2 2 6 36 16 76 71
269 65 571 -17 846 -4 13 -1 17 8 14 8 -3 227 -74 487 -159z m2602 154 c0 -5
-7 -30 -15 -57 -66 -218 -70 -535 -10 -773 14 -53 23 -98 21 -100 -4 -5 -955
302 -963 310 -22 23 -30 199 -12 271 l11 43 476 156 c262 85 480 156 485 156
4 1 7 -2 7 -6z m-1107 -220 c33 -35 44 -54 35 -57 -161 -54 -390 -127 -392
-124 -2 1 53 81 122 175 l126 173 31 -57 c16 -31 52 -81 78 -110z m-646 -14
c67 -93 120 -169 117 -169 -5 0 -357 112 -392 125 -10 4 3 23 38 61 28 31 62
79 76 105 13 27 28 49 32 48 4 0 62 -76 129 -170z m-93 -164 c102 -33 186 -63
186 -66 0 -4 -377 -129 -391 -129 -2 0 -4 59 -4 130 0 96 3 130 12 128 7 -2
95 -30 197 -63z m801 -65 c0 -71 -2 -130 -5 -130 -13 -1 -390 124 -390 129 0
6 363 128 385 130 6 1 10 -48 10 -129z m-663 -167 c-43 -60 -100 -138 -127
-176 l-49 -67 -30 57 c-17 31 -53 81 -79 109 l-48 53 198 65 c109 35 201 65
206 65 4 1 -28 -47 -71 -106z m457 37 l192 -61 -50 -55 c-27 -31 -62 -80 -78
-110 l-30 -55 -114 157 c-63 87 -120 167 -128 178 -13 17 -13 19 0 14 9 -3
102 -34 208 -68z m-329 -186 l0 -216 -24 16 c-34 22 -168 66 -201 66 -15 0
-25 4 -23 10 4 12 240 340 245 340 1 0 3 -97 3 -216z m195 38 c64 -90 116
-164 114 -165 -2 -2 -31 -8 -63 -15 -33 -6 -88 -25 -123 -41 l-63 -30 0 217
c0 119 4 212 8 207 5 -6 62 -83 127 -173z m-693 37 c40 -29 112 -128 133 -183
l17 -45 -298 -411 c-164 -226 -301 -407 -304 -403 -4 5 -15 31 -25 58 -32 92
-135 279 -199 365 -74 99 -174 204 -265 279 -52 43 -60 53 -45 58 11 3 222 72
469 153 248 81 458 148 468 149 11 1 32 -9 49 -20z m1569 -130 c255 -83 470
-154 477 -158 8 -5 -4 -19 -37 -44 -83 -64 -244 -239 -310 -337 -66 -99 -136
-231 -166 -315 -10 -27 -21 -54 -25 -58 -7 -8 -585 777 -597 810 -15 39 139
253 181 253 7 0 222 -68 477 -151z m-1270 -144 c51 -6 187 -67 194 -87 3 -7 4
-239 3 -515 l-3 -501 -80 49 c-218 136 -446 209 -726 236 l-86 8 300 412 c277
381 302 412 326 408 14 -2 47 -7 72 -10z m854 -397 c160 -220 291 -404 293
-409 2 -4 -28 -10 -65 -13 -313 -28 -548 -107 -796 -270 l-27 -18 2 512 3 513
53 29 c65 37 131 56 197 57 l50 0 290 -401z m-2024 182 c129 -128 220 -256
293 -410 55 -116 87 -211 77 -225 -4 -5 -122 -167 -261 -360 -139 -192 -271
-374 -293 -404 l-40 -54 -37 104 c-88 250 -208 470 -379 694 -119 156 -365
395 -512 499 -13 8 -21 17 -18 19 2 2 220 74 484 159 l480 155 45 -31 c25 -17
97 -83 161 -146z m3488 19 c256 -83 469 -154 473 -158 4 -3 -36 -40 -89 -81
-301 -233 -580 -588 -736 -935 -46 -103 -107 -263 -107 -281 0 -8 -3 -14 -7
-14 -5 1 -142 185 -305 411 l-297 410 30 87 c62 177 176 362 313 509 75 81
222 203 244 203 8 0 224 -68 481 -151z m-4654 -240 c311 -234 555 -524 727
-865 63 -124 149 -335 162 -400 7 -29 -15 -62 -290 -440 -163 -225 -298 -410
-299 -412 -1 -1 -19 48 -40 110 -136 409 -375 826 -663 1161 -153 179 -447
447 -625 572 -11 8 -19 16 -16 19 4 4 947 314 959 315 3 0 41 -27 85 -60z
m5702 -101 c260 -84 473 -156 473 -160 0 -3 -30 -28 -67 -54 -180 -129 -430
-362 -588 -549 -295 -350 -498 -705 -650 -1138 l-42 -118 -294 406 c-247 341
-294 411 -293 438 3 86 172 455 291 637 99 150 213 288 349 421 124 120 308
269 334 269 8 0 228 -68 487 -152z m-6753 -230 c359 -260 687 -610 917 -981
138 -221 293 -558 362 -785 l26 -84 -297 -409 c-163 -224 -299 -409 -302 -409
-3 0 -22 53 -43 118 -273 854 -854 1656 -1600 2207 -59 44 -102 82 -95 84 65
23 945 309 952 310 4 1 40 -22 80 -51z m7776 -103 c250 -81 466 -151 479 -156
22 -9 20 -12 -48 -60 -39 -27 -121 -90 -182 -138 -667 -535 -1168 -1248 -1444
-2054 l-57 -166 -292 402 c-161 221 -295 407 -299 414 -8 12 34 152 88 293
189 496 529 985 927 1336 126 111 356 286 367 280 3 -2 211 -70 461 -151z
m-4806 -36 c195 -39 388 -120 541 -226 l70 -48 3 -513 2 -512 -102 69 c-261
174 -504 282 -799 355 -182 45 -316 65 -497 73 -78 3 -141 9 -140 13 2 3 136
190 298 414 l295 407 114 -5 c63 -4 160 -15 215 -27z m1918 -384 l297 -410
-127 -7 c-498 -28 -927 -169 -1320 -435 l-92 -62 2 512 3 512 70 48 c226 156
551 259 805 253 l64 -1 298 -410z m-2402 -509 c257 -44 468 -114 705 -234 107
-55 302 -176 378 -235 16 -13 17 -50 17 -521 0 -278 -2 -506 -4 -506 -3 0 -67
42 -143 94 -241 163 -439 268 -703 371 -376 147 -730 220 -1128 232 -170 5
-202 8 -198 20 5 12 273 384 549 762 l40 54 171 -6 c113 -4 220 -14 316 -31z
m3043 -375 c163 -225 297 -411 297 -414 0 -2 -84 -7 -187 -10 -217 -7 -378
-25 -585 -67 -461 -95 -929 -296 -1306 -564 -51 -36 -95 -66 -98 -66 -2 0 -4
229 -4 509 l0 509 77 53 c137 96 215 141 368 215 323 156 670 238 1026 243
l116 1 296 -409z m-3698 -497 c579 -57 1178 -287 1660 -638 l95 -69 0 -509 c0
-279 -2 -508 -5 -508 -3 0 -38 24 -78 53 -599 442 -1325 732 -2069 827 -137
17 -393 35 -609 43 l-67 2 294 405 294 405 52 5 c80 8 265 1 433 -16z m4348
-397 l298 -412 -248 -7 c-533 -14 -1007 -110 -1503 -305 -314 -123 -665 -312
-928 -498 -62 -44 -122 -86 -133 -94 -19 -13 -19 -7 -19 497 l0 510 68 50
c444 328 965 547 1503 631 189 30 289 38 489 39 l175 1 298 -412z"/>
  </g>
</svg>
