<svg xmlns="http://www.w3.org/2000/svg" width="86.577" height="100"><path stroke="#000" fill="#999" d="M43.37 0C16.896 0-5.549 26.081 1.218 51.672c1.647 6.234 3.383 11.955 5.402 17.072-3.196 3.552-1.815 10.411 1.226 13.722 1.865 2.029 6.032 5.518 9.528 6.938 2.828-.414 11.101-.88 10.589 7.873.959.39 1.963.728 2.998 1.034V94.85h1.247v3.802a41.43 41.43 0 0 0 5.256.979V94.85h1.243v4.903c1.693.16 3.429.247 5.212.247h.046v-5.152h1.245v5.128a52.623 52.623 0 0 0 5.188-.349v-4.779h1.248v4.6a38.957 38.957 0 0 0 4.999-1.062V94.85h1.245v3.151a29.883 29.883 0 0 0 2.086-.765c-1.391-10.938 9.662-9.106 11.232-8.793 3.615-1.213 8.2-5.032 10.183-7.188 3.163-3.438 4.545-10.73.835-14.137-.125-.115-.27-.195-.401-.307 1.378-4.01 2.595-8.402 3.726-13.186C91.63 27.862 69.843 0 43.37 0zM33.221 65.608c-4.549 3.296-9.491 9.647-15.556 5.962-6.067-3.685-6.207-17.21-2.647-22.577 3.057-4.613 20.582-3.497 22.839.374 2.258 3.87-.088 12.945-4.636 16.241zm16.172 16.25c-.558 1.679-4.028-.53-5.582-1.622-1.552 1.092-5.024 3.302-5.583 1.622-.724-2.175 3.802-15.734 4.347-16.829a2.41 2.41 0 0 1 .664-.808c.13-.214.316-.299.532-.278.015-.003.026.002.041 0 .014.002.026-.003.041 0 .216-.021.402.065.533.279.26.201.502.48.661.807.542 1.094 5.071 14.655 4.346 16.829zm21.581-11.367c-5.808 4.079-11.162-1.931-15.919-4.913-4.76-2.982-7.702-11.885-5.704-15.898 1.994-4.011 19.407-6.292 22.764-1.895 3.905 5.12 4.663 18.623-1.141 22.706z"/></svg>